Coordinates
version=1
nRows=14
nColumns=24
inDegrees=yes

Units are S.I. units (second, meters, Newtons, ...)
Angles are in degrees.

endheader
time	pelvis_tilt	pelvis_list	pelvis_rotation	pelvis_tx	pelvis_ty	pelvis_tz	hip_flexion_r	hip_adduction_r	hip_rotation_r	knee_angle_r	ankle_angle_r	subtalar_angle_r	mtp_angle_r	hip_flexion_l	hip_adduction_l	hip_rotation_l	knee_angle_l	ankle_angle_l	subtalar_angle_l	mtp_angle_l	lumbar_extension	lumbar_bending	lumbar_rotation
      1.66000000	     22.29793455	     -5.48301734	      3.05458008	     -0.24896247	      0.85898782	     -0.03068133	     -6.45182872	      4.72926795	    -20.90798519	    -26.58855437	     31.63834787	      6.90161562	     32.20146866	    -22.32071252	     -4.29789852	    -12.64827857	    -18.77374451	     26.84625153	      4.80421727	    120.10719869	    -38.10312810	      4.58911005	    -12.23227181
      1.66500000	     22.41552379	     -5.72793950	      3.22093408	     -0.24276599	      0.85878221	     -0.03010218	     -6.85846655	      5.42341999	    -21.24063585	    -23.12877053	     30.93420053	      7.08697821	     33.87999549	    -22.84572125	     -4.73182931	    -12.89884644	    -18.96835672	     27.27662060	      5.33494707	    120.02195787	    -38.17877000	      4.85759724	    -12.29185693
      1.67000000	     22.55751145	     -5.88566057	      3.35237387	     -0.23644660	      0.85853370	     -0.02951484	     -7.32103065	      6.01419872	    -21.63618386	    -19.70416473	     30.33128697	      7.64745519	     34.12051100	    -23.46924323	     -5.03910886	    -13.10835445	    -19.00266810	     27.51124999	      5.64306783	    119.98732054	    -38.26523355	      5.02875001	    -12.36518548
      1.67500000	     22.61776774	     -6.03554859	      3.45787556	     -0.23011807	      0.85803096	     -0.02872401	     -7.71314674	      6.63106890	    -21.94113263	    -16.25058292	     29.50110256	      8.03732872	     35.30288777	    -23.92317841	     -5.37724071	    -13.44541568	    -19.26662372	     27.98812357	      6.21373929	    119.93130456	    -38.26229858	      5.15986815	    -12.42626024
      1.68000000	     22.65709323	     -6.11077181	      3.56601402	     -0.22371127	      0.85741336	     -0.02794741	     -8.09667685	      7.16875173	    -22.32200303	    -12.86880398	     28.62040033	      8.57374045	     36.52626135	    -24.37998653	     -5.62741632	    -13.68260419	    -19.46288891	     28.33016871	      6.65804715	    119.87375909	    -38.22516478	      5.22570849	    -12.52247617
      1.68500000	     22.59688639	     -6.09573581	      3.68475737	     -0.21731112	      0.85659409	     -0.02720390	     -8.32965988	      7.59321303	    -22.80850544	     -9.72184840	     27.81893888	      9.29840524	     36.67749736	    -24.71598689	     -5.77103186	    -13.74737543	    -19.65338187	     28.59963760	      6.78996074	    119.84069898	    -38.07954703	      5.21657242	    -12.72027724
      1.69000000	     22.51587713	     -6.05194664	      3.70538746	     -0.21094785	      0.85563302	     -0.02621479	     -8.52058352	      7.98265640	    -23.13022685	     -6.72378236	     26.76609050	      9.87714961	     38.99686711	    -24.98655040	     -5.89438761	    -14.01000462	    -20.01194844	     28.99799657	      7.43310401	    119.69370071	    -37.92180699	      5.11285260	    -12.80561314
      1.69500000	     22.38749927	     -5.96051834	      3.73589647	     -0.20460509	      0.85455457	     -0.02530548	     -8.58733369	      8.28781710	    -23.58753716	     -4.08085785	     26.00558155	     10.78531205	     39.09751775	    -25.20573906	     -5.94506160	    -14.12683217	    -20.33304859	     29.25509009	      7.59504961	    119.66428266	    -37.71631257	      4.98138425	    -12.95037674
      1.70000000	     22.21680421	     -5.85106052	      3.74337260	     -0.19828356	      0.85337682	     -0.02433828	     -8.55856490	      8.55309514	    -24.06243618	     -1.70319492	     25.26495451	     11.81190923	     39.34489677	    -25.34813351	     -5.98646516	    -14.27155879	    -20.74061552	     29.57695369	      7.94695531	    119.62189177	    -37.46742216	      4.82007439	    -13.06820427
      1.70500000	     22.03135058	     -5.70936737	      3.71247519	     -0.19202105	      0.85213990	     -0.02334566	     -8.44453828	      8.74447817	    -24.60873364	      0.35766071	     24.53765772	     13.06155740	     41.08088564	    -25.44298938	     -5.98657797	    -14.44399425	    -21.23381562	     29.85172147	      8.32067472	    119.38957222	    -37.21336222	      4.61234047	    -13.16596880
      1.71000000	     21.80751082	     -5.59423701	      3.72137922	     -0.18579433	      0.85084621	     -0.02235047	     -8.29161223	      8.97794333	    -25.03231967	      2.27353551	     23.81559658	     13.98241465	     41.21473369	    -25.48088704	     -6.03048063	    -14.49339447	    -21.72539570	     30.17764337	      8.62553822	    119.36101504	    -36.91966442	      4.45047301	    -13.25140983
      1.71500000	     21.58400535	     -5.48471565	      3.72424395	     -0.17957198	      0.84954268	     -0.02137074	     -8.09039731	      9.18495940	    -25.54973803	      3.89224719	     23.22034014	     15.21071770	     41.50185556	    -25.48583395	     -6.09125226	    -14.59041824	    -22.30740062	     30.47945605	      9.00158833	    119.31272534	    -36.62709463	      4.29794454	    -13.32075669
      1.72000000	     21.37354681	     -5.33728346	      3.70687118	     -0.17337138	      0.84828242	     -0.02041588	     -7.86839559	      9.31637393	    -26.10253721	      5.23375141	     22.73165963	     16.61198894	     42.08675701	    -25.50713528	     -6.09680519	    -14.63898712	    -22.88167899	     30.70788086	      9.37141433	    119.21507693	    -36.35170252	      4.10766505	    -13.38512596
      1.72500000	     21.15437590	     -5.24261353	      3.73269224	     -0.16723797	      0.84699863	     -0.01948458	     -7.63757528	      9.50164895	    -26.56720727	      6.41371355	     22.18164916	     17.70354648	     42.45224301	    -25.44968434	     -6.19233825	    -14.67756392	    -23.60006332	     30.96681197	      9.63034302	    119.15320443	    -36.07628618	      3.99405815	    -13.46369850
